<?xml version="1.0" encoding="UTF-8"?><svg id="_レイヤー_2" xmlns="http://www.w3.org/2000/svg" viewBox="0 0 105.36 105.36"><g id="_メイン"><g id="ico-pay"><circle cx="52.68" cy="52.68" r="50.01" style="fill:#dc022a;"/><path d="M52.68,105.36C23.63,105.36,0,81.73,0,52.68S23.63,0,52.68,0s52.68,23.63,52.68,52.68-23.63,52.68-52.68,52.68ZM52.68,5.33C26.57,5.33,5.33,26.57,5.33,52.68s21.24,47.35,47.35,47.35,47.35-21.24,47.35-47.35S78.79,5.33,52.68,5.33Z" style="fill:#fff;"/><path d="M63.95,48.4h7.82c2.18,0,3.8.82,3.8,3.93,0,2.82-1.48,3.93-3.8,3.93h-12.4l-.92,1.48v3.34h13.31c2.18,0,3.8,1.04,3.8,4s-1.48,3.86-3.8,3.86h-13.31v10.16c0,4.15-2.04,5.63-5.85,5.63-4.08,0-5.7-1.93-5.7-5.63v-10.16h-13.31c-2.68,0-3.8-1.33-3.8-3.93,0-3.86,2.89-3.93,3.8-3.93h13.31v-3.34l-.92-1.48h-12.4c-2.68,0-3.8-1.41-3.8-4,0-3.86,2.89-3.86,3.8-3.86h7.82l-8.94-15.35c-1.48-2.6-1.97-3.41-1.97-5.04,0-2.67,2.96-5.26,6.34-5.26,2.47,0,3.31,1.56,4.72,4l11.13,19.87,11.13-19.87c1.41-2.52,2.25-4,4.79-4,3.1,0,6.27,2.37,6.27,5.41,0,1.48-.56,2.45-1.97,4.89l-8.94,15.35Z" style="fill:#fff;"/></g></g></svg>