<?xml version="1.0" encoding="UTF-8"?><svg id="_レイヤー_2" xmlns="http://www.w3.org/2000/svg" viewBox="0 0 78.84 95.28"><g id="_メイン"><path id="ico-tel" d="M32.11,25.16c.53,3.3-.4,8.27-6.41,11.15-4.23,2.02-4.17,5.25-2.39,9.11,3.73,8.13,9.33,14.75,15.89,20.7,3.48,3.15,6.64,2.78,10.64.52,6.01-3.39,25.23,3.16,28.09,9.36,2.22,4.8.16,8.9-3.51,12.11-9.19,8.03-19.59,9.08-30.5,4.26-16.41-7.25-25.75-21.53-34.61-35.99C4.72,48.93,1.54,40.68.34,31.87-1.29,20,3,10.44,12.46,3.38,21.25-3.2,28.98.11,30.69,10.92c.61,3.87.8,7.8,1.42,14.25Z" style="fill:#fff;"/></g></svg>