<?xml version="1.0" encoding="UTF-8"?><svg id="_レイヤー_2" xmlns="http://www.w3.org/2000/svg" viewBox="0 0 100.59 63.3"><g id="_メイン"><g id="ico-deliver"><path d="M18.67,48.66c-3.61,0-6.61,2.62-7.21,6.06-.07.41-.11.83-.11,1.26s.04.85.11,1.26c.6,3.44,3.6,6.06,7.21,6.06s6.61-2.62,7.21-6.06c.07-.41.11-.83.11-1.26s-.04-.85-.11-1.26c-.6-3.44-3.6-6.06-7.21-6.06Z" style="fill:#fff;"/><path d="M100.57,37.12s0-.04-.01-.06c-.01-.06-.03-.12-.06-.18,0-.01,0-.02-.01-.03-.02-.05-.05-.11-.08-.16l-9-14.8c-1.67-2.75-4.71-4.45-7.92-4.45h-11.61V4.46c0-2.46-2-4.46-4.47-4.46H4.46C2,0,0,2,0,4.46v48.31c0,2.46,2,4.46,4.46,4.46h5.21c-.06-.41-.09-.83-.09-1.26s.03-.85.09-1.26c.62-4.42,4.41-7.83,9-7.83s8.38,3.41,9,7.83c.06.41.09.83.09,1.26s-.03.85-.09,1.26h47.5c-.06-.41-.09-.83-.09-1.26,0-.21,0-.42.02-.63.01-.21.04-.42.07-.63.62-4.42,4.41-7.83,9-7.83s8.38,3.41,9,7.83c.03.21.05.42.07.63.01.21.02.42.02.63,0,.43-.03.85-.09,1.26h2.96c2.46,0,4.47-2,4.47-4.46v-15.44c0-.08,0-.15-.02-.22ZM83.48,19.96c2.34,0,4.55,1.24,5.77,3.24l7.84,12.88h-25.21v-16.12h11.61Z" style="fill:#fff;"/><path d="M91.38,54.72c-.6-3.44-3.6-6.06-7.21-6.06s-6.61,2.62-7.21,6.06c-.04.21-.06.42-.08.63-.02.21-.03.42-.03.63,0,.43.04.85.11,1.26.6,3.44,3.6,6.06,7.21,6.06s6.61-2.62,7.21-6.06c.07-.41.11-.83.11-1.26,0-.21-.01-.42-.03-.63-.02-.21-.05-.42-.08-.63Z" style="fill:#fff;"/></g></g></svg>