<?xml version="1.0" encoding="UTF-8"?><svg id="_レイヤー_2" xmlns="http://www.w3.org/2000/svg" viewBox="0 0 101 101"><g id="SLIDER"><g id="ico-next"><path d="M50.5,99c-26.74,0-48.5-21.76-48.5-48.5S23.76,2,50.5,2s48.5,21.76,48.5,48.5-21.76,48.5-48.5,48.5Z" style="fill:#fff;"/><path d="M50.5,4c25.64,0,46.5,20.86,46.5,46.5s-20.86,46.5-46.5,46.5S4,76.14,4,50.5,24.86,4,50.5,4M50.5,0C22.61,0,0,22.61,0,50.5s22.61,50.5,50.5,50.5,50.5-22.61,50.5-50.5S78.39,0,50.5,0h0Z" style="fill:#cd1420;"/><polyline points="38.44 25.4 63.54 50.5 38.44 75.6" style="fill:none; stroke:#cd1420; stroke-linecap:round; stroke-linejoin:round; stroke-width:4px;"/></g></g></svg>