<?xml version="1.0" encoding="UTF-8"?><svg id="_レイヤー_2" xmlns="http://www.w3.org/2000/svg" viewBox="0 0 99.49 117.79"><g id="_メイン"><g id="ico-change"><path d="M68.28,16.8c-.96-.42-1.38-1.54-.96-2.47.4-.96,1.52-1.38,2.47-.96,8.88,3.91,16.38,10.34,21.64,18.4,5.1,7.82,8.06,17.12,8.06,27.12,0,13.75-5.56,26.19-14.57,35.17-9.01,9.01-21.43,14.57-35.17,14.57-.93,0-1.91-.03-2.92-.08-1.01-.05-1.99-.13-2.92-.27-1.04-.11-1.78-1.04-1.65-2.07.11-1.01,1.04-1.75,2.07-1.65.9.11,1.81.19,2.71.24.85.05,1.75.08,2.71.08,12.71,0,24.19-5.13,32.52-13.45,8.32-8.32,13.48-19.83,13.48-32.54,0-9.25-2.74-17.87-7.44-25.1-4.84-7.42-11.8-13.37-20.02-16.99h0ZM31.21,101c.96.42,1.38,1.54.96,2.47-.4.96-1.52,1.38-2.45.96-8.88-3.91-16.4-10.34-21.67-18.4C2.95,78.21,0,68.91,0,58.88c0-13.72,5.58-26.16,14.57-35.15,9.01-9.01,21.43-14.57,35.17-14.57.72,0,1.52,0,2.39.05.77.03,1.57.08,2.39.16,1.01.11,1.78,1.01,1.67,2.05-.11,1.04-1.01,1.78-2.05,1.67-.69-.05-1.44-.11-2.21-.16-.64-.03-1.38-.03-2.21-.03-12.71,0-24.19,5.13-32.52,13.45C8.91,34.69,3.75,46.2,3.75,58.88c0,9.28,2.74,17.89,7.44,25.1,4.87,7.44,11.8,13.4,20.02,17.02h0Z" style="fill:#fff;"/><path d="M42.25,3.4c-.85-.61-1.06-1.78-.45-2.61.61-.85,1.75-1.04,2.61-.45l12.87,9.17c.82.58,1.04,1.75.43,2.61-.13.19-.29.35-.48.45l-12.81,9.15c-.85.61-1.99.4-2.61-.43-.61-.85-.4-2.02.45-2.63l10.71-7.63-10.71-7.63Z" style="fill:#fff;"/><path d="M57.27,114.4c.82.61,1.04,1.78.43,2.61-.58.85-1.75,1.04-2.61.45l-12.84-9.17c-.85-.58-1.06-1.75-.45-2.6.13-.19.29-.35.48-.45l12.82-9.15c.85-.61,2.02-.4,2.61.43.61.85.4,2.02-.43,2.63l-10.71,7.63,10.71,7.63Z" style="fill:#fff;"/><path d="M18.77,40.06l31.48,8.77c.82.24,1.36.98,1.36,1.81h.03v34.14c0,1.04-.85,1.89-1.89,1.89-.24,0-.45-.05-.64-.11l-31.48-8.77c-.82-.24-1.36-.98-1.36-1.81h0v-34.14c0-1.04.82-1.89,1.86-1.89.24,0,.45.03.64.11h0ZM47.86,52.05l-27.84-7.76v30.28l27.84,7.76v-30.28Z" style="fill:#fff;"/><path d="M79.47,44.29l-27.84,7.76v30.28l27.84-7.76v-30.28ZM49.24,48.83l31.48-8.77c.19-.08.4-.11.64-.11,1.04,0,1.89.85,1.89,1.89v34.14h-.03c0,.82-.53,1.57-1.36,1.81l-31.48,8.77c-.19.05-.4.11-.64.11-1.04,0-1.89-.85-1.89-1.89v-34.14h.03c0-.82.53-1.57,1.36-1.81h0Z" style="fill:#fff;"/><path d="M25.1,41.81l24.65,6.89,24.65-6.89-24.65-6.86-24.65,6.86ZM49.24,52.45l-31.59-8.83c-.64-.16-1.14-.64-1.33-1.3-.27-.98.32-2.02,1.3-2.29l31.61-8.83c.32-.08.66-.11,1.01,0l31.61,8.83c.61.16,1.12.64,1.3,1.3.27.98-.32,2.02-1.3,2.29l-31.61,8.8c-.32.11-.66.11-1.01.03h0Z" style="fill:#fff;"/><polygon points="36.85 47.05 28.16 44.63 59.77 35.81 68.46 38.23 36.85 47.05" style="fill:#fff; fill-rule:evenodd;"/><polygon points="28.16 44.63 36.85 47.05 36.85 66.81 32.52 62.21 28.16 64.39 28.16 44.63" style="fill:#fff; fill-rule:evenodd;"/></g></g></svg>