<svg viewBox="0 0 101 101" xmlns="http://www.w3.org/2000/svg"><path d="m50.5 99c-26.74 0-48.5-21.76-48.5-48.5s21.76-48.5 48.5-48.5 48.5 21.76 48.5 48.5-21.76 48.5-48.5 48.5z" fill="#fff"/><path d="m50.5 4c25.64 0 46.5 20.86 46.5 46.5s-20.86 46.5-46.5 46.5-46.5-20.86-46.5-46.5 20.86-46.5 46.5-46.5m0-4c-27.89 0-50.5 22.61-50.5 50.5s22.61 50.5 50.5 50.5 50.5-22.61 50.5-50.5-22.61-50.5-50.5-50.5z" fill="#cd1420"/><path d="m62.56 25.4-25.1 25.1 25.1 25.1" fill="none" stroke="#cd1420" stroke-linecap="round" stroke-linejoin="round" stroke-width="4"/></svg>